<svg width="608" height="293" viewBox="0 0 608 293" fill="none" xmlns="http://www.w3.org/2000/svg">
<g clip-path="url(#clip0)">
<path d="M272.742 106.071H134.186C132.723 106.073 131.319 106.655 130.284 107.69C129.249 108.725 128.667 110.128 128.666 111.592V139.118C135.577 139.28 140.063 144.983 141.15 151.907V176.86H141.675C141.759 176.86 141.838 176.894 141.897 176.953C141.956 177.012 141.99 177.092 141.99 177.175V190.453C141.99 190.536 141.956 190.616 141.897 190.675C141.838 190.734 141.759 190.767 141.675 190.768H141.15V271.022C141.15 272.786 141.133 276.003 141.133 276.003H272.742C274.206 276.001 275.609 275.419 276.644 274.384C277.679 273.349 278.261 271.945 278.263 270.482V111.592C278.261 110.128 277.679 108.725 276.644 107.69C275.609 106.655 274.206 106.073 272.742 106.071Z" fill="#07569D"/>
<path d="M530.175 15.5024V166.118H287.846V99.8053C287.843 96.7943 286.646 93.9073 284.516 91.7782C282.387 89.6491 279.5 88.4517 276.489 88.4488H231.042V15.5024H530.175Z" fill="#07569D"/>
<path d="M545.137 187.351H288.117V186.302H544.087V8.9215C544.085 6.83447 543.255 4.83358 541.779 3.35783C540.303 1.88207 538.302 1.05195 536.215 1.04958H221.864C219.777 1.05195 217.776 1.88207 216.3 3.35783C214.824 4.83358 213.994 6.83447 213.992 8.9215V87.7687H212.942V8.9215C212.945 6.55619 213.886 4.28852 215.558 2.61599C217.231 0.943463 219.499 0.00266203 221.864 0H536.215C538.58 0.00265827 540.848 0.943451 542.521 2.61598C544.193 4.28851 545.134 6.55619 545.137 8.9215V187.351Z" fill="#9CC2D5"/>
<path d="M520.784 219.364H288.117V218.314H520.784C526.962 218.307 532.885 215.85 537.254 211.481C541.623 207.112 544.08 201.189 544.087 195.011V187.351H288.117V186.302H545.137V195.011C545.13 201.467 542.561 207.657 537.996 212.223C533.43 216.788 527.24 219.356 520.784 219.364Z" fill="#9CC2D5"/>
<path d="M451.732 270.793C438.762 258.339 430.229 242.089 427.487 219.364H331.893C330.921 240.625 322.443 256.57 307.149 270.737L305.533 270.794C321.312 256.494 330.003 240.432 330.866 218.818L330.886 218.314H428.42L428.474 218.778C431.168 241.888 439.879 258.243 453.169 270.709L451.732 270.793Z" fill="#9CC2D5"/>
<path d="M276.236 292.505H128.98V291.456H276.236C279.246 291.452 282.133 290.255 284.262 288.126C286.391 285.997 287.588 283.11 287.592 280.1V100.046C287.588 97.0353 286.391 94.1488 284.262 92.0198C282.133 89.8909 279.246 88.6934 276.236 88.69H128.98C125.969 88.6934 123.083 89.8909 120.954 92.0198C118.825 94.1488 117.627 97.0353 117.624 100.046V138.903H116.574V100.046C116.578 96.757 117.886 93.6038 120.212 91.2781C122.538 88.9524 125.691 87.6441 128.98 87.6404H276.236C279.525 87.6441 282.678 88.9523 285.004 91.278C287.329 93.6037 288.637 96.757 288.641 100.046V280.1C288.637 283.389 287.329 286.542 285.004 288.868C282.678 291.193 279.525 292.502 276.236 292.505Z" fill="#9CC2D5"/>
<path d="M202.608 100.919C201.904 100.919 201.216 100.711 200.631 100.32C200.046 99.9286 199.59 99.3728 199.32 98.7225C199.051 98.0723 198.98 97.3568 199.118 96.6664C199.255 95.9761 199.594 95.342 200.092 94.8443C200.589 94.3467 201.223 94.0077 201.914 93.8704C202.604 93.7331 203.319 93.8035 203.97 94.0729C204.62 94.3422 205.176 94.7983 205.567 95.3835C205.958 95.9687 206.167 96.6567 206.167 97.3606C206.166 98.304 205.79 99.2086 205.123 99.8758C204.456 100.543 203.551 100.918 202.608 100.919ZM202.608 94.6246C202.067 94.6246 201.538 94.7851 201.088 95.0857C200.638 95.3864 200.287 95.8137 200.08 96.3136C199.873 96.8136 199.819 97.3637 199.924 97.8945C200.03 98.4252 200.291 98.9128 200.673 99.2954C201.056 99.6781 201.543 99.9386 202.074 100.044C202.605 100.15 203.155 100.096 203.655 99.8885C204.155 99.6814 204.582 99.3307 204.883 98.8807C205.184 98.4307 205.344 97.9017 205.344 97.3606C205.343 96.6352 205.055 95.9397 204.542 95.4268C204.029 94.9139 203.333 94.6254 202.608 94.6246Z" fill="#9CC2D5"/>
<path d="M202.608 288.483C201.71 288.483 200.832 288.216 200.085 287.717C199.338 287.218 198.756 286.509 198.413 285.68C198.069 284.85 197.979 283.937 198.154 283.056C198.329 282.175 198.762 281.366 199.397 280.731C200.032 280.096 200.841 279.664 201.722 279.488C202.603 279.313 203.516 279.403 204.345 279.747C205.175 280.09 205.884 280.672 206.383 281.419C206.882 282.166 207.149 283.044 207.149 283.942C207.147 285.146 206.668 286.3 205.817 287.151C204.966 288.002 203.812 288.481 202.608 288.483ZM202.608 280.451C201.917 280.451 201.242 280.655 200.668 281.039C200.094 281.423 199.646 281.968 199.382 282.606C199.118 283.244 199.049 283.946 199.184 284.623C199.318 285.3 199.651 285.922 200.139 286.411C200.627 286.899 201.249 287.231 201.927 287.366C202.604 287.501 203.306 287.432 203.944 287.167C204.582 286.903 205.127 286.456 205.511 285.881C205.894 285.307 206.099 284.632 206.099 283.942C206.098 283.016 205.73 282.129 205.075 281.474C204.421 280.82 203.533 280.452 202.608 280.451Z" fill="#9CC2D5"/>
<path d="M127.501 292.81H78.7554C75.0857 292.805 71.5675 291.346 68.9726 288.751C66.3778 286.156 64.9182 282.638 64.9141 278.968V152.744C64.9182 149.074 66.3778 145.556 68.9727 142.961C71.5675 140.367 75.0857 138.907 78.7553 138.903H127.501C131.171 138.907 134.689 140.367 137.284 142.961C139.879 145.556 141.338 149.074 141.342 152.744V175.332C141.591 175.436 141.803 175.611 141.953 175.835C142.102 176.059 142.182 176.323 142.182 176.592L142.182 191.29C142.182 191.559 142.102 191.823 141.953 192.047C141.803 192.271 141.591 192.446 141.342 192.55V278.968C141.338 282.638 139.879 286.156 137.284 288.751C134.689 291.346 131.171 292.805 127.501 292.81ZM78.7553 139.952C75.3639 139.956 72.1126 141.305 69.7145 143.703C67.3165 146.101 65.9675 149.353 65.9636 152.744V278.968C65.9674 282.36 67.3164 285.611 69.7145 288.009C72.1125 290.407 75.364 291.756 78.7554 291.76H127.501C130.892 291.756 134.144 290.407 136.542 288.009C138.94 285.611 140.289 282.36 140.293 278.968V191.605H140.818C140.901 191.605 140.981 191.572 141.04 191.513C141.099 191.454 141.133 191.373 141.133 191.29L141.133 176.592C141.133 176.509 141.099 176.428 141.04 176.369C140.981 176.31 140.901 176.277 140.818 176.277H140.293V152.744C140.289 149.353 138.94 146.101 136.542 143.703C134.144 141.305 130.893 139.956 127.501 139.952H78.7553Z" fill="#9CC2D5"/>
<path d="M128.038 142.892H121.675C121.968 143.61 122.08 144.388 122.001 145.159C121.922 145.929 121.654 146.669 121.222 147.312C120.79 147.955 120.206 148.482 119.522 148.846C118.839 149.21 118.076 149.401 117.301 149.401H89.3753C88.6005 149.401 87.8376 149.21 87.1538 148.846C86.4701 148.482 85.8864 147.955 85.4543 147.312C85.0221 146.669 84.7547 145.929 84.6756 145.159C84.5966 144.388 84.7083 143.609 85.0009 142.892H79.0579C76.4204 142.892 73.891 143.94 72.026 145.805C70.161 147.67 69.1133 150.199 69.1133 152.837V278.876C69.1133 281.513 70.161 284.043 72.026 285.908C73.891 287.773 76.4204 288.82 79.0579 288.82H128.038C130.676 288.82 133.205 287.773 135.07 285.908C136.935 284.043 137.983 281.513 137.983 278.876V152.837C137.983 150.199 136.935 147.67 135.07 145.805C133.205 143.94 130.676 142.892 128.038 142.892Z" fill="#07569D"/>
<path d="M546.508 292.604H34.4918C34.4273 292.605 34.3634 292.589 34.3037 292.557C34.2441 292.526 34.1898 292.48 34.1441 292.422C34.0985 292.364 34.0622 292.295 34.0375 292.219C34.0127 292.143 34 292.062 34 291.979C34 291.897 34.0127 291.816 34.0375 291.74C34.0622 291.664 34.0985 291.595 34.1441 291.537C34.1898 291.479 34.2441 291.433 34.3037 291.402C34.3634 291.37 34.4273 291.354 34.4918 291.355H546.508C546.573 291.354 546.637 291.37 546.696 291.402C546.756 291.433 546.81 291.479 546.856 291.537C546.902 291.595 546.938 291.664 546.963 291.74C546.987 291.816 547 291.897 547 291.979C547 292.062 546.987 292.143 546.963 292.219C546.938 292.295 546.902 292.364 546.856 292.422C546.81 292.48 546.756 292.526 546.696 292.557C546.637 292.589 546.573 292.605 546.508 292.604Z" fill="#9CC2D5"/>
<path d="M452.056 292.31H306.688C305.24 292.311 303.806 292.027 302.468 291.473C301.13 290.92 299.914 290.108 298.89 289.085C297.865 288.062 297.053 286.846 296.498 285.509C295.944 284.171 295.659 282.737 295.659 281.289C295.659 279.841 295.944 278.407 296.498 277.07C297.053 275.732 297.865 274.517 298.89 273.493C299.914 272.47 301.13 271.658 302.468 271.105C303.806 270.552 305.24 270.267 306.688 270.269H452.056C454.977 270.271 457.778 271.433 459.843 273.5C461.908 275.566 463.068 278.368 463.068 281.289C463.068 284.21 461.908 287.012 459.843 289.079C457.778 291.145 454.977 292.307 452.056 292.31ZM306.688 271.318C304.044 271.318 301.507 272.369 299.638 274.239C297.768 276.108 296.717 278.645 296.717 281.289C296.717 283.934 297.768 286.47 299.638 288.34C301.507 290.21 304.044 291.26 306.688 291.26H452.056C454.7 291.26 457.237 290.21 459.106 288.34C460.976 286.47 462.027 283.934 462.027 281.289C462.027 278.645 460.976 276.108 459.106 274.239C457.237 272.369 454.7 271.318 452.056 271.318H306.688Z" fill="#9CC2D5"/>
</g>
<defs>
<clipPath id="clip0">
<rect width="654" height="292.81" fill="white"/>
</clipPath>
</defs>
</svg>
