<svg width="517" height="410" viewBox="0 0 517 410" fill="none" xmlns="http://www.w3.org/2000/svg">
<path d="M255.992 142.279C83.5158 141.275 3.29297 293.696 3.29297 293.696L166.746 379.923C166.746 379.923 186.801 317.752 258.001 319.755C263.016 319.89 268.018 320.334 272.978 321.083L327.104 151.906C303.919 145.62 280.013 142.384 255.992 142.279Z" fill="#07569D"/>
<path d="M327.104 151.906L272.978 321.1C332.043 330.073 349.249 379.923 349.249 379.923L513.707 297.708C513.707 297.708 451.914 185.802 327.104 151.906Z" fill="#9CC2D5" fill-opacity="0.7"/>
<path d="M272.802 394.583L327.752 149.074L250.959 388.546C250.018 389.862 249.353 391.356 249.002 392.936C248.652 394.516 248.624 396.15 248.921 397.741C249.217 399.332 249.831 400.847 250.727 402.196C251.622 403.544 252.78 404.697 254.132 405.587C255.484 406.477 257.001 407.085 258.594 407.375C260.186 407.665 261.82 407.63 263.399 407.274C264.978 406.917 266.468 406.245 267.781 405.299C269.094 404.353 270.203 403.152 271.041 401.767V401.734C272.165 399.908 272.777 397.813 272.813 395.669C272.846 395.291 272.83 394.939 272.802 394.583Z" fill="#E4E4E4"/>
</svg>
