<svg width="215" height="34" viewBox="0 0 215 34" fill="none" xmlns="http://www.w3.org/2000/svg">
<path d="M17.9136 0L23.4488 10.8946L35.8271 12.6523L26.8703 21.1278L28.9841 33.1014L17.9136 27.4453L6.84298 33.1014L8.95678 21.1278L0 12.6523L12.3783 10.8946L17.9136 0Z" fill="#01539D"/>
<path d="M17.9136 0L23.4488 10.8946L35.8271 12.6523L26.8703 21.1278L28.9841 33.1014L17.9136 27.4453L6.84298 33.1014L8.95678 21.1278L0 12.6523L12.3783 10.8946L17.9136 0Z" fill="#01539D"/>
<path d="M62.9136 0L68.4488 10.8946L80.8271 12.6523L71.8703 21.1278L73.9841 33.1014L62.9136 27.4453L51.843 33.1014L53.9568 21.1278L45 12.6523L57.3783 10.8946L62.9136 0Z" fill="#01539D"/>
<path d="M62.9136 0L68.4488 10.8946L80.8271 12.6523L71.8703 21.1278L73.9841 33.1014L62.9136 27.4453L51.843 33.1014L53.9568 21.1278L45 12.6523L57.3783 10.8946L62.9136 0Z" fill="#01539D"/>
<path d="M107.914 0L113.449 10.8946L125.827 12.6523L116.87 21.1278L118.984 33.1014L107.914 27.4453L96.843 33.1014L98.9568 21.1278L90 12.6523L102.378 10.8946L107.914 0Z" fill="#01539D"/>
<path d="M107.914 0L113.449 10.8946L125.827 12.6523L116.87 21.1278L118.984 33.1014L107.914 27.4453L96.843 33.1014L98.9568 21.1278L90 12.6523L102.378 10.8946L107.914 0Z" fill="#01539D"/>
<path d="M151.914 0L157.449 10.8946L169.827 12.6523L160.87 21.1278L162.984 33.1014L151.914 27.4453L140.843 33.1014L142.957 21.1278L134 12.6523L146.378 10.8946L151.914 0Z" fill="#01539D"/>
<path d="M151.914 0L157.449 10.8946L169.827 12.6523L160.87 21.1278L162.984 33.1014L151.914 27.4453L140.843 33.1014L142.957 21.1278L134 12.6523L146.378 10.8946L151.914 0Z" fill="#01539D"/>
<path d="M196.914 0L202.449 10.8946L214.827 12.6523L205.87 21.1278L207.984 33.1014L196.914 27.4453L185.843 33.1014L187.957 21.1278L179 12.6523L191.378 10.8946L196.914 0Z" fill="#01539D"/>
<path d="M196.914 0L202.449 10.8946L214.827 12.6523L205.87 21.1278L207.984 33.1014L196.914 27.4453L185.843 33.1014L187.957 21.1278L179 12.6523L191.378 10.8946L196.914 0Z" fill="#01539D"/>
</svg>
