<svg width="396" height="146" viewBox="0 0 396 146" fill="none" xmlns="http://www.w3.org/2000/svg">
<path d="M196.503 6.47067C216.991 22.9694 218.826 52.5425 200.172 68.1073C196.503 71.2202 195.28 78.0687 195.28 92.0771V112H173.874H152.469V92.6997C152.469 76.201 151.246 72.1541 144.518 64.9943C128.923 48.4956 133.204 15.187 152.163 4.60291C164.395 -2.24561 186.717 -1.31172 196.503 6.47067Z" fill="#01539D"/>
<path d="M395.175 137.636C395.52 135.243 396 127 396 127H0C0 131.768 1.18463 135.601 1.69528 137.032C1.8404 137.439 1.9852 137.845 2.10528 138.259L4.12487 145.234H393.25C393.428 144.839 394.736 140.675 395.175 137.636Z" fill="#01539D"/>
<path d="M262.512 110.4V26.4545H273.464L320.314 86.9446V26.4545H333.638V110.4H322.139L275.898 51.1443V110.4H262.512Z" fill="white"/>
<path d="M57.7095 110.4L25.2186 26.4545H39.2128L64.1591 93.7343L88.4968 26.4545H102.491L70.0001 110.4H57.7095Z" fill="white"/>
</svg>
