<svg width="191" height="35" viewBox="0 0 191 35" fill="none" xmlns="http://www.w3.org/2000/svg">
<path d="M17.4806 0.509277L22.7904 11.6927L34.6643 13.497L26.0725 22.1972L28.1002 34.4883L17.4806 28.6822L6.86106 34.4883L8.88874 22.1972L0.296875 13.497L12.1708 11.6927L17.4806 0.509277Z" fill="#01539D"/>
<path d="M17.4806 0.509277L22.7904 11.6927L34.6643 13.497L26.0725 22.1972L28.1002 34.4883L17.4806 28.6822L6.86106 34.4883L8.88874 22.1972L0.296875 13.497L12.1708 11.6927L17.4806 0.509277Z" fill="#01539D"/>
<path d="M60.6505 0.509766L65.9603 11.6932L77.8343 13.4975L69.2424 22.1977L71.2701 34.4887L60.6505 28.6827L50.031 34.4887L52.0587 22.1977L43.4668 13.4975L55.3408 11.6932L60.6505 0.509766Z" fill="#01539D"/>
<path d="M60.6505 0.509766L65.9603 11.6932L77.8343 13.4975L69.2424 22.1977L71.2701 34.4887L60.6505 28.6827L50.031 34.4887L52.0587 22.1977L43.4668 13.4975L55.3408 11.6932L60.6505 0.509766Z" fill="#01539D"/>
<path d="M103.818 0.509766L109.128 11.6932L121.002 13.4975L112.41 22.1977L114.438 34.4887L103.818 28.6827L93.1985 34.4887L95.2261 22.1977L86.6343 13.4975L98.5082 11.6932L103.818 0.509766Z" fill="#01539D"/>
<path d="M103.818 0.509766L109.128 11.6932L121.002 13.4975L112.41 22.1977L114.438 34.4887L103.818 28.6827L93.1985 34.4887L95.2261 22.1977L86.6343 13.4975L98.5082 11.6932L103.818 0.509766Z" fill="#01539D"/>
<path d="M146.985 0.509277L152.295 11.6927L164.169 13.497L155.577 22.1972L157.605 34.4883L146.985 28.6822L136.366 34.4883L138.394 22.1972L129.802 13.497L141.676 11.6927L146.985 0.509277Z" fill="#01539D"/>
<path d="M146.985 0.509277L152.295 11.6927L164.169 13.497L155.577 22.1972L157.605 34.4883L146.985 28.6822L136.366 34.4883L138.394 22.1972L129.802 13.497L141.676 11.6927L146.985 0.509277Z" fill="#01539D"/>
<path d="M179.536 34.4873L190.155 28.6812V0.508301L184.846 11.6917L172.972 13.4961L181.564 22.1963L179.536 34.4873Z" fill="#01539D"/>
</svg>
