<svg width="575" height="514" viewBox="0 0 575 514" fill="none" xmlns="http://www.w3.org/2000/svg">
<g clip-path="url(#clip0)">
<path d="M288.637 7.19006L108.187 118.236C108.187 118.236 108.187 347.269 288.637 472.196C469.087 347.269 469.087 118.236 469.087 118.236L288.637 7.19006Z" fill="#01539D"/>
<path opacity="0.04" d="M289.714 7.19006L286.63 9.08829V470.03C287.654 470.754 288.678 471.479 289.714 472.196C470.165 347.269 470.165 118.236 470.165 118.236L289.714 7.19006Z" fill="#9F9FA0"/>
<path d="M252.98 234.087L280.575 259.382L319.667 201.892L333.465 213.39L280.575 282.378L241.482 238.686L252.98 234.087Z" fill="#FCF7F4"/>
<path d="M339.449 227.044C339.449 227.044 318.856 217.205 319.186 225.703C319.515 234.2 339.944 239.791 339.944 239.791L339.449 227.044Z" fill="#D69E9E"/>
<path d="M353.468 298.949C353.468 298.949 343.753 322.729 340.163 339.888C336.573 357.048 331.106 380.663 338.138 397.411C345.17 414.159 365.163 463.381 365.369 468.692C365.575 474.003 363.657 479.396 367.906 479.231C372.154 479.066 395.275 471.787 396.214 468.559C397.153 465.332 388.326 457.164 388.326 457.164L366.529 388.863L389.27 344.367L405.674 410.749L408.886 493.599C408.886 493.599 424.654 488.732 426.944 492.898C426.944 492.898 434.008 483.05 434.906 478.761C435.803 474.471 431.569 392.724 431.569 392.724C431.569 392.724 446.043 299.614 434.359 300.067C422.675 300.52 376.91 272.509 353.468 298.949Z" fill="#D6A319"/>
<path d="M367.741 474.982C367.741 474.982 356.963 498.803 355.942 499.907C354.921 501.01 347.898 511.92 353.208 511.714C358.519 511.508 371.06 505.703 380.29 496.835C389.52 487.967 401.689 472.602 400.586 471.581C399.483 470.56 391.924 467.662 391.924 467.662L367.741 474.982Z" fill="#9CC2D5"/>
<path d="M410.805 488.205C410.805 488.205 410.155 498.868 408.195 503.2C406.235 507.531 406.482 513.904 411.793 513.698C417.104 513.492 430.83 510.832 430.83 510.832C430.83 510.832 431.645 504.418 430.542 503.397C429.439 502.376 424.737 490.857 426.738 487.588C428.738 484.319 410.805 488.205 410.805 488.205Z" fill="#9CC2D5"/>
<path d="M418.662 142.173C418.662 142.173 429.984 159.818 434.397 163.902C438.811 167.986 426.394 176.978 426.394 176.978L404.17 179.967C404.17 179.967 404.45 159.744 403.305 157.661C402.161 155.578 418.662 142.173 418.662 142.173Z" fill="#D69E9E"/>
<path d="M399.346 165.261C399.346 165.261 403.924 173.594 408.173 173.429C412.422 173.264 434.398 163.902 435.337 160.674C436.275 157.447 442.616 183.795 442.616 183.795L388.841 278.429L375.725 269.364L382.08 213.801L387.3 183.813L399.346 165.261Z" fill="#D6A319"/>
<path d="M437.32 249.955C435.175 254.442 433.835 259.121 434.021 263.912C434.029 264.124 434.037 264.337 434.056 264.549C434.565 274.38 438.186 285.749 439.486 294.018C440.429 299.949 440.16 304.278 436.689 305.296C428.274 307.75 437.916 309.503 405.359 320.34C372.803 331.176 367.121 321.823 367.039 319.698C366.956 317.574 371.649 301.435 370.546 300.414C369.442 299.393 355.107 313.778 350.776 311.819C346.445 309.859 350.282 299.072 350.282 299.072C350.282 299.072 360.039 276.355 359.833 271.044C359.627 265.733 374.612 240.685 374.612 240.685L384.805 174.335C384.805 174.335 388.724 165.673 393.994 164.405C399.263 163.137 403.636 166.159 403.636 166.159L394.817 185.649L385.514 220.05L387.07 232.755C387.07 232.755 397.889 209.996 404.995 201.211C412.101 192.425 427.251 171.626 427.251 171.626C427.251 171.626 430.788 159.691 428.118 156.125C425.447 152.548 439.255 152.012 445.143 166.677C448.263 174.449 453.329 186.039 456.503 196.83C459.331 206.39 460.667 215.328 457.865 220.436C453.583 228.24 442.811 238.498 437.32 249.955Z" fill="#9CC2D5"/>
<path opacity="0.1" d="M457.865 220.436C453.583 228.24 442.811 238.498 437.319 249.955C435.885 244.787 434.135 239.44 434.135 239.44C434.135 239.44 427.424 203.532 447.276 194.252C450.565 193.934 453.855 194.853 456.503 196.83C459.331 206.39 460.667 215.328 457.865 220.436Z" fill="#D6A319"/>
<path d="M379.059 218.173L362.228 223.081L338.86 223.987L336.456 244.292L374.86 247.058C374.86 247.058 384.452 220.091 379.059 218.173Z" fill="#9CC2D5"/>
<path d="M402.103 287.973C402.103 287.973 379.588 291.708 384.726 298.484C389.865 305.259 409.811 298.136 409.811 298.136L402.103 287.973Z" fill="#D69E9E"/>
<path opacity="0.1" d="M434.056 264.549C434.565 274.379 438.187 285.749 439.486 294.018C432.313 300.806 425.493 306.794 422.922 306.893C417.611 307.099 409.073 306.367 405.927 307.552C402.782 308.738 400.937 288.598 400.937 288.598C400.937 288.598 402.814 282.142 411.188 278.626C416.84 276.248 427.675 269.796 434.056 264.549Z" fill="#D6A319"/>
<path d="M447.029 187.879C447.029 187.879 465.004 185.054 464.033 214.878C463.061 244.701 465.927 263.738 458.698 269.337C451.469 274.937 427.986 300.314 422.675 300.52C417.364 300.726 408.825 299.993 405.68 301.179C402.535 302.365 400.69 282.225 400.69 282.225C400.69 282.225 402.567 275.769 410.941 272.253C419.315 268.737 439.043 256.27 438.878 252.022C438.714 247.773 433.888 233.067 433.888 233.067C433.888 233.067 427.177 197.159 447.029 187.879Z" fill="#9CC2D5"/>
<path d="M402.811 168.3C415.727 168.3 426.197 157.83 426.197 144.915C426.197 131.999 415.727 121.529 402.811 121.529C389.896 121.529 379.426 131.999 379.426 144.915C379.426 157.83 389.896 168.3 402.811 168.3Z" fill="#D69E9E"/>
<path d="M387.065 111.397C386.501 111.883 385.826 112.222 385.099 112.383C384.734 112.449 384.358 112.367 384.054 112.156C383.749 111.945 383.54 111.622 383.473 111.257C382.938 112.367 382.334 113.549 381.242 114.119C380.15 114.688 378.46 114.211 378.303 112.989C378.143 113.916 377.733 114.783 377.116 115.494C376.438 116.14 375.209 116.303 374.618 115.577C375.096 118.192 374.801 120.88 374.951 123.534C375.101 126.187 375.809 129 377.814 130.745C380.737 133.29 385.134 132.662 388.98 132.18C389.562 132.058 390.165 132.091 390.73 132.276C392.17 132.889 392.105 134.894 392.124 136.459C392.241 139.205 393.328 141.821 395.192 143.842C397.055 145.863 399.574 147.158 402.302 147.497C403.829 147.733 405.386 147.352 406.633 146.44C407.725 145.515 408.282 144.006 409.534 143.311C411.569 142.18 414.038 143.829 415.526 145.62C417.014 147.411 418.48 149.614 420.786 149.942C423.835 150.375 426.157 147.268 427.296 144.407C428.868 140.397 429.621 136.113 429.511 131.807C429.401 127.502 428.43 123.262 426.655 119.337C420.289 105.46 398.542 103.265 387.065 111.397Z" fill="#2F2E41"/>
</g>
<defs>
<clipPath id="clip0">
<rect width="575" height="513.703" fill="white"/>
</clipPath>
</defs>
</svg>
